<svg viewBox="0 0 1498 400" xmlns="http://www.w3.org/2000/svg"><g><g><g><g><g><line x1="61.953125" y1="378" x2="56.953125" y2="378" style="visibility: inherit;" fill="rgb(0, 0, 0)" stroke="rgb(204, 204, 204)" stroke-width="1px"></line><line x1="61.953125" y1="343.6363636363636" x2="56.953125" y2="343.6363636363636" style="visibility: inherit;" fill="rgb(0, 0, 0)" stroke="rgb(204, 204, 204)" stroke-width="1px"></line><line x1="61.953125" y1="309.27272727272725" x2="56.953125" y2="309.27272727272725" style="visibility: inherit;" fill="rgb(0, 0, 0)" stroke="rgb(204, 204, 204)" stroke-width="1px"></line><line x1="61.953125" y1="274.90909090909093" x2="56.953125" y2="274.90909090909093" style="visibility: inherit;" fill="rgb(0, 0, 0)" stroke="rgb(204, 204, 204)" stroke-width="1px"></line><line x1="61.953125" y1="240.54545454545453" x2="56.953125" y2="240.54545454545453" style="visibility: inherit;" fill="rgb(0, 0, 0)" stroke="rgb(204, 204, 204)" stroke-width="1px"></line><line x1="61.953125" y1="206.18181818181816" x2="56.953125" y2="206.18181818181816" style="visibility: inherit;" fill="rgb(0, 0, 0)" stroke="rgb(204, 204, 204)" stroke-width="1px"></line><line x1="61.953125" y1="171.81818181818178" x2="56.953125" y2="171.81818181818178" style="visibility: inherit;" fill="rgb(0, 0, 0)" stroke="rgb(204, 204, 204)" stroke-width="1px"></line><line x1="61.953125" y1="137.4545454545455" x2="56.953125" y2="137.4545454545455" style="visibility: inherit;" fill="rgb(0, 0, 0)" stroke="rgb(204, 204, 204)" stroke-width="1px"></line><line x1="61.953125" y1="103.09090909090908" x2="56.953125" y2="103.09090909090908" style="visibility: inherit;" fill="rgb(0, 0, 0)" stroke="rgb(204, 204, 204)" stroke-width="1px"></line><line x1="61.953125" y1="68.72727272727275" x2="56.953125" y2="68.72727272727275" style="visibility: inherit;" fill="rgb(0, 0, 0)" stroke="rgb(204, 204, 204)" stroke-width="1px"></line><line x1="61.953125" y1="34.363636363636374" x2="56.953125" y2="34.363636363636374" style="visibility: inherit;" fill="rgb(0, 0, 0)" stroke="rgb(204, 204, 204)" stroke-width="1px"></line><line x1="61.953125" y1="0" x2="56.953125" y2="0" style="visibility: inherit;" fill="rgb(0, 0, 0)" stroke="rgb(204, 204, 204)" stroke-width="1px"></line></g><g transform="translate(51.953125, 0)"><text x="0" y="378" dx="0em" dy="0.3em" style="text-anchor: end; visibility: hidden; font-family: Roboto, sans-serif; font-size: 12px; font-weight: 200;" fill="rgb(50, 49, 63)" stroke="none" stroke-width="1px">-0.01</text><text x="0" y="343.6363636363636" dx="0em" dy="0.3em" style="text-anchor: end; visibility: inherit; font-family: Roboto, sans-serif; font-size: 12px; font-weight: 200;" fill="rgb(50, 49, 63)" stroke="none" stroke-width="1px">0</text><text x="0" y="309.27272727272725" dx="0em" dy="0.3em" style="text-anchor: end; visibility: inherit; font-family: Roboto, sans-serif; font-size: 12px; font-weight: 200;" fill="rgb(50, 49, 63)" stroke="none" stroke-width="1px">0.01</text><text x="0" y="274.90909090909093" dx="0em" dy="0.3em" style="text-anchor: end; visibility: inherit; font-family: Roboto, sans-serif; font-size: 12px; font-weight: 200;" fill="rgb(50, 49, 63)" stroke="none" stroke-width="1px">0.02</text><text x="0" y="240.54545454545453" dx="0em" dy="0.3em" style="text-anchor: end; visibility: inherit; font-family: Roboto, sans-serif; font-size: 12px; font-weight: 200;" fill="rgb(50, 49, 63)" stroke="none" stroke-width="1px">0.03</text><text x="0" y="206.18181818181816" dx="0em" dy="0.3em" style="text-anchor: end; visibility: inherit; font-family: Roboto, sans-serif; font-size: 12px; font-weight: 200;" fill="rgb(50, 49, 63)" stroke="none" stroke-width="1px">0.04</text><text x="0" y="171.81818181818178" dx="0em" dy="0.3em" style="text-anchor: end; visibility: inherit; font-family: Roboto, sans-serif; font-size: 12px; font-weight: 200;" fill="rgb(50, 49, 63)" stroke="none" stroke-width="1px">0.05</text><text x="0" y="137.4545454545455" dx="0em" dy="0.3em" style="text-anchor: end; visibility: inherit; font-family: Roboto, sans-serif; font-size: 12px; font-weight: 200;" fill="rgb(50, 49, 63)" stroke="none" stroke-width="1px">0.06</text><text x="0" y="103.09090909090908" dx="0em" dy="0.3em" style="text-anchor: end; visibility: inherit; font-family: Roboto, sans-serif; font-size: 12px; font-weight: 200;" fill="rgb(50, 49, 63)" stroke="none" stroke-width="1px">0.07</text><text x="0" y="68.72727272727275" dx="0em" dy="0.3em" style="text-anchor: end; visibility: inherit; font-family: Roboto, sans-serif; font-size: 12px; font-weight: 200;" fill="rgb(50, 49, 63)" stroke="none" stroke-width="1px">0.08</text><text x="0" y="34.363636363636374" dx="0em" dy="0.3em" style="text-anchor: end; visibility: inherit; font-family: Roboto, sans-serif; font-size: 12px; font-weight: 200;" fill="rgb(50, 49, 63)" stroke="none" stroke-width="1px">0.09</text><text x="0" y="0" dx="0em" dy="0.3em" style="text-anchor: end; visibility: hidden; font-family: Roboto, sans-serif; font-size: 12px; font-weight: 200;" fill="rgb(50, 49, 63)" stroke="none" stroke-width="1px">0.1</text></g><line x1="61.953125" y1="0" x2="61.953125" y2="378" fill="rgb(0, 0, 0)" stroke="rgb(204, 204, 204)" stroke-width="1px"></line></g></g><g transform="translate(61, 0)" clip-path="url(#clip_0)"><clipPath id="clip_0"><rect width="1436" height="378"></rect></clipPath><g><g><g><line x1="0" y1="0" x2="0" y2="378" fill="rgb(0, 0, 0)" stroke="rgb(60, 60, 60)" stroke-width="1px" opacity="0.25"></line><line x1="143.6046875" y1="0" x2="143.6046875" y2="378" fill="rgb(0, 0, 0)" stroke="rgb(60, 60, 60)" stroke-width="1px" opacity="0.25"></line><line x1="287.209375" y1="0" x2="287.209375" y2="378" fill="rgb(0, 0, 0)" stroke="rgb(60, 60, 60)" stroke-width="1px" opacity="0.25"></line><line x1="430.8140625" y1="0" x2="430.8140625" y2="378" fill="rgb(0, 0, 0)" stroke="rgb(60, 60, 60)" stroke-width="1px" opacity="0.25"></line><line x1="574.41875" y1="0" x2="574.41875" y2="378" fill="rgb(0, 0, 0)" stroke="rgb(60, 60, 60)" stroke-width="1px" opacity="0.25"></line><line x1="718.0234375" y1="0" x2="718.0234375" y2="378" fill="rgb(0, 0, 0)" stroke="rgb(60, 60, 60)" stroke-width="1px" opacity="0.25"></line><line x1="861.628125" y1="0" x2="861.628125" y2="378" fill="rgb(0, 0, 0)" stroke="rgb(60, 60, 60)" stroke-width="1px" opacity="0.25"></line><line x1="1005.2328124999999" y1="0" x2="1005.2328124999999" y2="378" fill="rgb(0, 0, 0)" stroke="rgb(60, 60, 60)" stroke-width="1px" opacity="0.25"></line><line x1="1148.8375" y1="0" x2="1148.8375" y2="378" fill="rgb(0, 0, 0)" stroke="rgb(60, 60, 60)" stroke-width="1px" opacity="0.25"></line><line x1="1292.4421875" y1="0" x2="1292.4421875" y2="378" fill="rgb(0, 0, 0)" stroke="rgb(60, 60, 60)" stroke-width="1px" opacity="0.25"></line><line x1="1436.046875" y1="0" x2="1436.046875" y2="378" fill="rgb(0, 0, 0)" stroke="rgb(60, 60, 60)" stroke-width="1px" opacity="0.25"></line></g><g><line x1="0" y1="378" x2="1436.046875" y2="378" fill="rgb(0, 0, 0)" stroke="rgb(60, 60, 60)" stroke-width="1px" opacity="0.25"></line><line x1="0" y1="343.6363636363636" x2="1436.046875" y2="343.6363636363636" fill="rgb(0, 0, 0)" stroke="rgb(60, 60, 60)" stroke-width="1px" opacity="0.25"></line><line x1="0" y1="309.27272727272725" x2="1436.046875" y2="309.27272727272725" fill="rgb(0, 0, 0)" stroke="rgb(60, 60, 60)" stroke-width="1px" opacity="0.25"></line><line x1="0" y1="274.90909090909093" x2="1436.046875" y2="274.90909090909093" fill="rgb(0, 0, 0)" stroke="rgb(60, 60, 60)" stroke-width="1px" opacity="0.25"></line><line x1="0" y1="240.54545454545453" x2="1436.046875" y2="240.54545454545453" fill="rgb(0, 0, 0)" stroke="rgb(60, 60, 60)" stroke-width="1px" opacity="0.25"></line><line x1="0" y1="206.18181818181816" x2="1436.046875" y2="206.18181818181816" fill="rgb(0, 0, 0)" stroke="rgb(60, 60, 60)" stroke-width="1px" opacity="0.25"></line><line x1="0" y1="171.81818181818178" x2="1436.046875" y2="171.81818181818178" fill="rgb(0, 0, 0)" stroke="rgb(60, 60, 60)" stroke-width="1px" opacity="0.25"></line><line x1="0" y1="137.4545454545455" x2="1436.046875" y2="137.4545454545455" fill="rgb(0, 0, 0)" stroke="rgb(60, 60, 60)" stroke-width="1px" opacity="0.25"></line><line x1="0" y1="103.09090909090908" x2="1436.046875" y2="103.09090909090908" fill="rgb(0, 0, 0)" stroke="rgb(60, 60, 60)" stroke-width="1px" opacity="0.25"></line><line x1="0" y1="68.72727272727275" x2="1436.046875" y2="68.72727272727275" fill="rgb(0, 0, 0)" stroke="rgb(60, 60, 60)" stroke-width="1px" opacity="0.25"></line><line x1="0" y1="34.363636363636374" x2="1436.046875" y2="34.363636363636374" fill="rgb(0, 0, 0)" stroke="rgb(60, 60, 60)" stroke-width="1px" opacity="0.25"></line><line x1="0" y1="0" x2="1436.046875" y2="0" fill="rgb(0, 0, 0)" stroke="rgb(60, 60, 60)" stroke-width="1px" opacity="0.25"></line></g></g></g><g><g><line x1="0" y1="343.6363636363636" x2="1436.046875" y2="343.6363636363636" fill="rgb(0, 0, 0)" stroke="rgb(153, 153, 153)" stroke-width="1.5px"></line></g></g><g><g><line x1="143.6046875" y1="0" x2="143.6046875" y2="378" fill="rgb(0, 0, 0)" stroke="rgb(153, 153, 153)" stroke-width="1.5px"></line></g></g><g><g><g><g><g><path stroke="rgb(255, 112, 67)" stroke-width="2px" d="M193.86632812500002,-20.386806656002108L201.04656250000002,41.487742564237166L208.226796875,122.43456362692655L215.40703125,177.047874291979L222.587265625,213.32799488482962L229.7675,231.1367573552161L236.947734375,243.83801013953453L244.12796875,266.33505007202837L251.30820312499998,279.69134873314465L258.4884375,288.00502996647083L265.668671875,294.07661588916136L272.84890625,297.77890799112345L280.029140625,300.50719731553744L287.209375,303.09366024771646L294.38960937499996,305.1909467438115L301.56984374999996,306.99188968659547L308.750078125,308.08720905429675L315.9303125,309.47642231053925L323.110546875,311.45496405299855L330.29078125,311.8234101950784L337.471015625,311.49973711254466L344.65125,312.5552858547522L351.831484375,312.61291037959785L359.01171875,312.72063771403015L366.191953125,312.7046108691931L373.3721875,312.7573263165842L380.552421875,312.99383002895075L387.73265625000005,314.72138286556157L394.91289062500005,316.3916677240475L402.09312500000004,317.42171699063243L409.273359375,318.97595642776355L416.45359375,318.27541179540555L423.633828125,318.8079367837985L430.8140625,317.6149134822969L437.994296875,318.1834333494122L445.17453125,319.32683595656755L452.354765625,320.61815001907473L459.535,321.1111426512557L466.715234375,320.0980736010458L473.89546875,321.9420117255654L481.075703125,321.0255685057362L488.2559375,321.5194683321148L495.43617187499996,322.2569385870057L502.61640624999995,325.31302921132107L509.79664062499995,324.9882409856876L516.976875,320.95228146150146L524.157109375,324.6652742540218L531.33734375,323.58319367790244L538.517578125,324.73171790028977L545.6978125,328.0542082673801L552.878046875,328.0138436194248L560.05828125,328.67926977965436L567.238515625,328.03310576992965L574.41875,328.47221859238095L581.598984375,328.7096302102138L588.7792187499999,327.856428240735L595.959453125,325.29815013313754L603.1396874999999,327.0961155755407L610.319921875,327.7553298081536L617.50015625,329.46378135748273L624.680390625,329.88175878219613L631.860625,329.8010788375524L639.040859375,330.6411508543695L646.22109375,331.94062477313634L653.4013281250001,332.77555507115056L660.5815625,333.7764422787763L667.7617968750001,334.3574427877849L674.94203125,334.47754037327303L682.122265625,334.40631291109815L689.3025,334.9774102232529L696.482734375,334.2419895200074L703.66296875,334.9118349740427L710.843203125,335.2339699975996L718.0234375,335.9834576243275L725.203671875,335.6797189758461L732.38390625,335.3709494344004L739.564140625,335.81428861408176L746.744375,336.0674477849094L753.924609375,336.148609823845L761.10484375,336.16463614122347L768.285078125,335.5457415973756L775.4653125000001,336.2558653051636L782.645546875,336.99005736079295L789.8257812500001,336.44716424248776L797.006015625,336.5170569291298L804.1862500000001,337.1547742028544L811.3664843749999,336.63015461433804L818.54671875,337.05766754135226L825.7269531249999,336.9768658352885L832.9071875,336.24209480321093L840.0874218749999,336.2767587647208L847.26765625,336.3226537484286L854.447890625,336.92971551631354L861.628125,337.10501322494804L868.808359375,337.5227709871479L875.98859375,337.8815262267206L883.168828125,337.6499198815232L890.3490625,337.6740848187076L897.529296875,336.80435675984427L904.70953125,337.59681204959145L911.889765625,337.2755708491522L919.07,336.6232091928227L926.250234375,337.2135094788833L933.43046875,336.9132814985584L940.610703125,337.53541539492403L947.7909375,337.5700069140056L954.9711718750001,338.09538930723477L962.15140625,338.0135735448523L969.3316406250001,337.62478587418553L976.511875,337.50401227296743L983.6921093750001,337.6069820923683L990.8723437499999,337.4532252946501L998.052578125,337.3903929534368L1005.2328124999999,337.5217340035991L1012.413046875,336.71171157072246L1019.5932812499999,336.42459075213173L1026.7735156249998,337.09074792718627L1033.95375,336.23212909705967L1041.133984375,337.15219388317405L1048.31421875,337.2799615881794L1055.494453125,337.0660266878469L1062.6746875,337.41422684575286L1069.854921875,337.32658402025663L1077.03515625,337.97763318088903L1084.215390625,337.54832486865996L1091.395625,337.9987328316076L1098.575859375,337.20204858363127L1105.75609375,337.49353044124354L1112.936328125,336.8256138732141L1120.1165625,336.6025192845066L1127.2967968750002,336.4961821329333L1134.47703125,336.71300655452563L1141.657265625,336.43078563698566L1148.8375,336.67145927499524L1156.0177343750001,337.3227308736653L1163.19796875,337.75975684065315L1170.378203125,337.96761537492307L1177.5584374999999,337.1706221026591L1184.738671875,337.34530739806064L1191.91890625,337.65603217285013L1199.099140625,337.54146025339986L1206.2793749999998,337.6419220552796L1213.459609375,337.43504387198794L1220.63984375,337.7709491451819L1227.820078125,337.2749458237948L1235.0003125,337.5170520920866L1242.180546875,336.0223451850628L1249.36078125,336.7397367873705L1256.541015625,336.769562786184L1263.72125,336.6007392852271L1270.901484375,336.6737507167806L1278.08171875,336.89407503874787" style="fill: none;" fill="none"></path></g></g></g></g><g opacity="0.2"><g><g><g><path stroke="rgb(255, 112, 67)" stroke-width="2px" d="M172.325625,-124.15972742167385L179.505859375,25.79778841950679L186.68609375,142.57568137212238L193.86632812500002,176.04402821172368L201.04656250000002,132.74068415164948L208.226796875,242.63115903870627L215.40703125,258.4725015813654L222.587265625,267.55074095996946L229.7675,257.7917523614385L236.947734375,262.86500623957676L244.12796875,300.05416554483503L251.30820312499998,299.7163768281991L258.4884375,300.4720337451859L265.668671875,303.1824531981891L272.84890625,303.3317821371284L280.029140625,304.5993819257075L287.209375,306.9732127982107L294.38960937499996,308.3368074758486L301.56984374999996,309.6932685442946L308.750078125,309.73017513074655L315.9303125,311.56023232096976L323.110546875,314.42276822911066L330.29078125,312.37607846544546L337.471015625,311.0142279856584L344.65125,314.13860799575394L351.831484375,312.6993471350182L359.01171875,312.882228679955L366.191953125,312.6805706051263L373.3721875,312.8363994813778L380.552421875,313.34858558056027L387.73265625000005,317.3127120462331L394.91289062500005,318.89709496870637L402.09312500000004,318.9667908745733L409.273359375,321.3073155690323L416.45359375,317.2245948507704L423.633828125,319.6067242646082L430.8140625,315.8253785324368L437.994296875,319.03621314940125L445.17453125,321.04193986647505L452.354765625,322.5551211122762L459.535,321.85063159939915L466.715234375,318.57847002588886L473.89546875,324.7079189121723L481.075703125,319.6509036760438L488.2559375,322.26031807166606L495.43617187499996,323.3631439693272L502.61640624999995,329.897165147757L509.79664062499995,324.50105864723974L516.976875,314.89834217523986L524.157109375,330.23476344279266L531.33734375,321.96007281372493L538.517578125,326.4545042338696L545.6978125,333.0379438180138L552.878046875,327.95329664749175L560.05828125,329.67740901999855L567.238515625,327.06385975534266L574.41875,329.130887826058L581.598984375,329.065747636963L588.7792187499999,326.57662528651684L595.959453125,321.4607329717414L603.1396874999999,329.79306373914534L610.319921875,328.744151157073L617.50015625,332.0264586814764L624.680390625,330.50872491926634L631.860625,329.68005892058665L639.040859375,331.90125887959516L646.22109375,333.8898356512866L653.4013281250001,334.0279505181719L660.5815625,335.2777730902149L667.7617968750001,335.2289435512979L674.94203125,334.6576867515052L682.122265625,334.29947171783584L689.3025,335.83405619148505L696.482734375,333.13885846513915L703.66296875,335.91660315509546L710.843203125,335.717172532935L718.0234375,337.1076890644194L725.203671875,335.2241110031239L732.38390625,334.90779512223196L739.564140625,336.47929738360375L746.744375,336.4471865411509L753.924609375,336.27035288224846L761.10484375,336.18867561729115L768.285078125,334.6173997816037L775.4653125000001,337.32105086684567L782.645546875,338.091345444237L789.8257812500001,335.63282456503L797.006015625,336.6218959590928L804.1862500000001,338.11135011344135L811.3664843749999,335.8432252315635L818.54671875,337.69893693187356L825.7269531249999,336.85566327619284L832.9071875,335.13993825509465L840.0874218749999,336.3287547069856L847.26765625,336.3914962239902L854.447890625,337.840308168141L861.628125,337.3679597878998L868.808359375,338.1494076304476L875.98859375,338.4196590860798L883.168828125,337.30251036372715L890.3490625,337.7103322244842L897.529296875,335.4997646715492L904.70953125,338.7854949842122L911.889765625,336.7937090484933L919.07,335.6446667083285L926.250234375,338.098959907974L933.43046875,336.46293952807105L940.610703125,338.46861623947257L947.7909375,337.6218941926279L954.9711718750001,338.8834628970786L962.15140625,337.8908499012786L969.3316406250001,337.04160436818546L976.511875,337.3228518711403L983.6921093750001,337.76143682146954L990.8723437499999,337.2225900980729L998.052578125,337.29614444161683L1005.2328124999999,337.7187455788424L1012.413046875,335.4966779214076L1019.5932812499999,335.9939095242457L1026.7735156249998,338.0899836897681L1033.95375,334.9442008518699L1041.133984375,338.53229106234556L1048.31421875,337.47161314568734L1055.494453125,336.74512433734805L1062.6746875,337.9365270826119L1069.854921875,337.1951197820123L1077.03515625,338.95420692183757L1084.215390625,336.90436240031636L1091.395625,338.67434477602893L1098.575859375,336.0070222116668L1105.75609375,337.93075322766197L1112.936328125,335.82373902116984L1120.1165625,336.2678774014454L1127.2967968750002,336.3366764055734L1134.47703125,337.0382431869141L1141.657265625,336.00745426067573L1148.8375,337.03246973200953L1156.0177343750001,338.29963827167046L1163.19796875,338.4152957911349L1170.378203125,338.279403176328L1177.5584374999999,335.97513219426304L1184.738671875,337.607335341163L1191.91890625,338.12211933503437L1199.099140625,337.3696023742245L1206.2793749999998,337.7926147580993L1213.459609375,337.12472659705037L1220.63984375,338.27480705497277L1227.820078125,336.5309408417141L1235.0003125,337.88021149452436L1242.180546875,333.78028482452714L1249.36078125,337.815824190832L1256.541015625,336.8143017844043L1263.72125,336.3475040337917L1270.901484375,336.78326786411077L1278.08171875,337.22456152169883" style="fill: none;" fill="none"></path></g></g></g></g></g></g><g transform="translate(61, 378)" clip-path="url(#clip_1)"><clipPath id="clip_1"><rect width="1436" height="22"></rect></clipPath><g><g><line x1="0" y1="0" x2="0" y2="5" style="visibility: inherit;" fill="rgb(0, 0, 0)" stroke="rgb(204, 204, 204)" stroke-width="1px"></line><line x1="143.6046875" y1="0" x2="143.6046875" y2="5" style="visibility: inherit;" fill="rgb(0, 0, 0)" stroke="rgb(204, 204, 204)" stroke-width="1px"></line><line x1="287.209375" y1="0" x2="287.209375" y2="5" style="visibility: inherit;" fill="rgb(0, 0, 0)" stroke="rgb(204, 204, 204)" stroke-width="1px"></line><line x1="430.8140625" y1="0" x2="430.8140625" y2="5" style="visibility: inherit;" fill="rgb(0, 0, 0)" stroke="rgb(204, 204, 204)" stroke-width="1px"></line><line x1="574.41875" y1="0" x2="574.41875" y2="5" style="visibility: inherit;" fill="rgb(0, 0, 0)" stroke="rgb(204, 204, 204)" stroke-width="1px"></line><line x1="718.0234375" y1="0" x2="718.0234375" y2="5" style="visibility: inherit;" fill="rgb(0, 0, 0)" stroke="rgb(204, 204, 204)" stroke-width="1px"></line><line x1="861.628125" y1="0" x2="861.628125" y2="5" style="visibility: inherit;" fill="rgb(0, 0, 0)" stroke="rgb(204, 204, 204)" stroke-width="1px"></line><line x1="1005.2328124999999" y1="0" x2="1005.2328124999999" y2="5" style="visibility: inherit;" fill="rgb(0, 0, 0)" stroke="rgb(204, 204, 204)" stroke-width="1px"></line><line x1="1148.8375" y1="0" x2="1148.8375" y2="5" style="visibility: inherit;" fill="rgb(0, 0, 0)" stroke="rgb(204, 204, 204)" stroke-width="1px"></line><line x1="1292.4421875" y1="0" x2="1292.4421875" y2="5" style="visibility: inherit;" fill="rgb(0, 0, 0)" stroke="rgb(204, 204, 204)" stroke-width="1px"></line><line x1="1436.046875" y1="0" x2="1436.046875" y2="5" style="visibility: inherit;" fill="rgb(0, 0, 0)" stroke="rgb(204, 204, 204)" stroke-width="1px"></line></g><g transform="translate(0, 8)"><text x="0" y="0" dx="0em" dy="0.95em" style="text-anchor: middle; visibility: hidden; font-family: Roboto, sans-serif; font-size: 12px; font-weight: 200;" fill="rgb(50, 49, 63)" stroke="none" stroke-width="1px">-20</text><text x="143.6046875" y="0" dx="0em" dy="0.95em" style="text-anchor: middle; visibility: inherit; font-family: Roboto, sans-serif; font-size: 12px; font-weight: 200;" fill="rgb(50, 49, 63)" stroke="none" stroke-width="1px">0</text><text x="287.209375" y="0" dx="0em" dy="0.95em" style="text-anchor: middle; visibility: inherit; font-family: Roboto, sans-serif; font-size: 12px; font-weight: 200;" fill="rgb(50, 49, 63)" stroke="none" stroke-width="1px">20</text><text x="430.8140625" y="0" dx="0em" dy="0.95em" style="text-anchor: middle; visibility: inherit; font-family: Roboto, sans-serif; font-size: 12px; font-weight: 200;" fill="rgb(50, 49, 63)" stroke="none" stroke-width="1px">40</text><text x="574.41875" y="0" dx="0em" dy="0.95em" style="text-anchor: middle; visibility: inherit; font-family: Roboto, sans-serif; font-size: 12px; font-weight: 200;" fill="rgb(50, 49, 63)" stroke="none" stroke-width="1px">60</text><text x="718.0234375" y="0" dx="0em" dy="0.95em" style="text-anchor: middle; visibility: inherit; font-family: Roboto, sans-serif; font-size: 12px; font-weight: 200;" fill="rgb(50, 49, 63)" stroke="none" stroke-width="1px">80</text><text x="861.628125" y="0" dx="0em" dy="0.95em" style="text-anchor: middle; visibility: inherit; font-family: Roboto, sans-serif; font-size: 12px; font-weight: 200;" fill="rgb(50, 49, 63)" stroke="none" stroke-width="1px">100</text><text x="1005.2328124999999" y="0" dx="0em" dy="0.95em" style="text-anchor: middle; visibility: inherit; font-family: Roboto, sans-serif; font-size: 12px; font-weight: 200;" fill="rgb(50, 49, 63)" stroke="none" stroke-width="1px">120</text><text x="1148.8375" y="0" dx="0em" dy="0.95em" style="text-anchor: middle; visibility: inherit; font-family: Roboto, sans-serif; font-size: 12px; font-weight: 200;" fill="rgb(50, 49, 63)" stroke="none" stroke-width="1px">140</text><text x="1292.4421875" y="0" dx="0em" dy="0.95em" style="text-anchor: middle; visibility: inherit; font-family: Roboto, sans-serif; font-size: 12px; font-weight: 200;" fill="rgb(50, 49, 63)" stroke="none" stroke-width="1px">160</text><text x="1436.046875" y="0" dx="0em" dy="0.95em" style="text-anchor: middle; visibility: hidden; font-family: Roboto, sans-serif; font-size: 12px; font-weight: 200;" fill="rgb(50, 49, 63)" stroke="none" stroke-width="1px">180</text></g><line x1="0" y1="0" x2="1436.046875" y2="0" fill="rgb(0, 0, 0)" stroke="rgb(204, 204, 204)" stroke-width="1px"></line></g></g></g></g></svg>