<svg viewBox="0 0 1498 400" xmlns="http://www.w3.org/2000/svg"><g><g><g><g><g><line x1="61.953125" y1="378" x2="56.953125" y2="378" style="visibility: inherit;" fill="rgb(0, 0, 0)" stroke="rgb(204, 204, 204)" stroke-width="1px"></line><line x1="61.953125" y1="335.9999999999999" x2="56.953125" y2="335.9999999999999" style="visibility: inherit;" fill="rgb(0, 0, 0)" stroke="rgb(204, 204, 204)" stroke-width="1px"></line><line x1="61.953125" y1="293.9999999999998" x2="56.953125" y2="293.9999999999998" style="visibility: inherit;" fill="rgb(0, 0, 0)" stroke="rgb(204, 204, 204)" stroke-width="1px"></line><line x1="61.953125" y1="251.9999999999997" x2="56.953125" y2="251.9999999999997" style="visibility: inherit;" fill="rgb(0, 0, 0)" stroke="rgb(204, 204, 204)" stroke-width="1px"></line><line x1="61.953125" y1="209.9999999999996" x2="56.953125" y2="209.9999999999996" style="visibility: inherit;" fill="rgb(0, 0, 0)" stroke="rgb(204, 204, 204)" stroke-width="1px"></line><line x1="61.953125" y1="167.9999999999995" x2="56.953125" y2="167.9999999999995" style="visibility: inherit;" fill="rgb(0, 0, 0)" stroke="rgb(204, 204, 204)" stroke-width="1px"></line><line x1="61.953125" y1="125.99999999999939" x2="56.953125" y2="125.99999999999939" style="visibility: inherit;" fill="rgb(0, 0, 0)" stroke="rgb(204, 204, 204)" stroke-width="1px"></line><line x1="61.953125" y1="83.99999999999928" x2="56.953125" y2="83.99999999999928" style="visibility: inherit;" fill="rgb(0, 0, 0)" stroke="rgb(204, 204, 204)" stroke-width="1px"></line><line x1="61.953125" y1="41.999999999999176" x2="56.953125" y2="41.999999999999176" style="visibility: inherit;" fill="rgb(0, 0, 0)" stroke="rgb(204, 204, 204)" stroke-width="1px"></line></g><g transform="translate(51.953125, 0)"><text x="0" y="378" dx="0em" dy="0.3em" style="text-anchor: end; visibility: hidden; font-family: Roboto, sans-serif; font-size: 12px; font-weight: 200;" fill="rgb(50, 49, 63)" stroke="none" stroke-width="1px">0.96</text><text x="0" y="335.9999999999999" dx="0em" dy="0.3em" style="text-anchor: end; visibility: inherit; font-family: Roboto, sans-serif; font-size: 12px; font-weight: 200;" fill="rgb(50, 49, 63)" stroke="none" stroke-width="1px">0.965</text><text x="0" y="293.9999999999998" dx="0em" dy="0.3em" style="text-anchor: end; visibility: inherit; font-family: Roboto, sans-serif; font-size: 12px; font-weight: 200;" fill="rgb(50, 49, 63)" stroke="none" stroke-width="1px">0.97</text><text x="0" y="251.9999999999997" dx="0em" dy="0.3em" style="text-anchor: end; visibility: inherit; font-family: Roboto, sans-serif; font-size: 12px; font-weight: 200;" fill="rgb(50, 49, 63)" stroke="none" stroke-width="1px">0.975</text><text x="0" y="209.9999999999996" dx="0em" dy="0.3em" style="text-anchor: end; visibility: inherit; font-family: Roboto, sans-serif; font-size: 12px; font-weight: 200;" fill="rgb(50, 49, 63)" stroke="none" stroke-width="1px">0.98</text><text x="0" y="167.9999999999995" dx="0em" dy="0.3em" style="text-anchor: end; visibility: inherit; font-family: Roboto, sans-serif; font-size: 12px; font-weight: 200;" fill="rgb(50, 49, 63)" stroke="none" stroke-width="1px">0.985</text><text x="0" y="125.99999999999939" dx="0em" dy="0.3em" style="text-anchor: end; visibility: inherit; font-family: Roboto, sans-serif; font-size: 12px; font-weight: 200;" fill="rgb(50, 49, 63)" stroke="none" stroke-width="1px">0.99</text><text x="0" y="83.99999999999928" dx="0em" dy="0.3em" style="text-anchor: end; visibility: inherit; font-family: Roboto, sans-serif; font-size: 12px; font-weight: 200;" fill="rgb(50, 49, 63)" stroke="none" stroke-width="1px">0.995</text><text x="0" y="41.999999999999176" dx="0em" dy="0.3em" style="text-anchor: end; visibility: inherit; font-family: Roboto, sans-serif; font-size: 12px; font-weight: 200;" fill="rgb(50, 49, 63)" stroke="none" stroke-width="1px">1</text></g><line x1="61.953125" y1="0" x2="61.953125" y2="378" fill="rgb(0, 0, 0)" stroke="rgb(204, 204, 204)" stroke-width="1px"></line></g></g><g transform="translate(61, 0)" clip-path="url(#clip_0)"><clipPath id="clip_0"><rect width="1436" height="378"></rect></clipPath><g><g><g><line x1="0" y1="0" x2="0" y2="378" fill="rgb(0, 0, 0)" stroke="rgb(60, 60, 60)" stroke-width="1px" opacity="0.25"></line><line x1="143.6046875" y1="0" x2="143.6046875" y2="378" fill="rgb(0, 0, 0)" stroke="rgb(60, 60, 60)" stroke-width="1px" opacity="0.25"></line><line x1="287.209375" y1="0" x2="287.209375" y2="378" fill="rgb(0, 0, 0)" stroke="rgb(60, 60, 60)" stroke-width="1px" opacity="0.25"></line><line x1="430.8140625" y1="0" x2="430.8140625" y2="378" fill="rgb(0, 0, 0)" stroke="rgb(60, 60, 60)" stroke-width="1px" opacity="0.25"></line><line x1="574.41875" y1="0" x2="574.41875" y2="378" fill="rgb(0, 0, 0)" stroke="rgb(60, 60, 60)" stroke-width="1px" opacity="0.25"></line><line x1="718.0234375" y1="0" x2="718.0234375" y2="378" fill="rgb(0, 0, 0)" stroke="rgb(60, 60, 60)" stroke-width="1px" opacity="0.25"></line><line x1="861.628125" y1="0" x2="861.628125" y2="378" fill="rgb(0, 0, 0)" stroke="rgb(60, 60, 60)" stroke-width="1px" opacity="0.25"></line><line x1="1005.2328124999999" y1="0" x2="1005.2328124999999" y2="378" fill="rgb(0, 0, 0)" stroke="rgb(60, 60, 60)" stroke-width="1px" opacity="0.25"></line><line x1="1148.8375" y1="0" x2="1148.8375" y2="378" fill="rgb(0, 0, 0)" stroke="rgb(60, 60, 60)" stroke-width="1px" opacity="0.25"></line><line x1="1292.4421875" y1="0" x2="1292.4421875" y2="378" fill="rgb(0, 0, 0)" stroke="rgb(60, 60, 60)" stroke-width="1px" opacity="0.25"></line><line x1="1436.046875" y1="0" x2="1436.046875" y2="378" fill="rgb(0, 0, 0)" stroke="rgb(60, 60, 60)" stroke-width="1px" opacity="0.25"></line></g><g><line x1="0" y1="378" x2="1436.046875" y2="378" fill="rgb(0, 0, 0)" stroke="rgb(60, 60, 60)" stroke-width="1px" opacity="0.25"></line><line x1="0" y1="335.9999999999999" x2="1436.046875" y2="335.9999999999999" fill="rgb(0, 0, 0)" stroke="rgb(60, 60, 60)" stroke-width="1px" opacity="0.25"></line><line x1="0" y1="293.9999999999998" x2="1436.046875" y2="293.9999999999998" fill="rgb(0, 0, 0)" stroke="rgb(60, 60, 60)" stroke-width="1px" opacity="0.25"></line><line x1="0" y1="251.9999999999997" x2="1436.046875" y2="251.9999999999997" fill="rgb(0, 0, 0)" stroke="rgb(60, 60, 60)" stroke-width="1px" opacity="0.25"></line><line x1="0" y1="209.9999999999996" x2="1436.046875" y2="209.9999999999996" fill="rgb(0, 0, 0)" stroke="rgb(60, 60, 60)" stroke-width="1px" opacity="0.25"></line><line x1="0" y1="167.9999999999995" x2="1436.046875" y2="167.9999999999995" fill="rgb(0, 0, 0)" stroke="rgb(60, 60, 60)" stroke-width="1px" opacity="0.25"></line><line x1="0" y1="125.99999999999939" x2="1436.046875" y2="125.99999999999939" fill="rgb(0, 0, 0)" stroke="rgb(60, 60, 60)" stroke-width="1px" opacity="0.25"></line><line x1="0" y1="83.99999999999928" x2="1436.046875" y2="83.99999999999928" fill="rgb(0, 0, 0)" stroke="rgb(60, 60, 60)" stroke-width="1px" opacity="0.25"></line><line x1="0" y1="41.999999999999176" x2="1436.046875" y2="41.999999999999176" fill="rgb(0, 0, 0)" stroke="rgb(60, 60, 60)" stroke-width="1px" opacity="0.25"></line></g></g></g><g><g><line x1="0" y1="8442.000000000013" x2="1436.046875" y2="8442.000000000013" fill="rgb(0, 0, 0)" stroke="rgb(153, 153, 153)" stroke-width="1.5px"></line></g></g><g><g><line x1="143.6046875" y1="0" x2="143.6046875" y2="378" fill="rgb(0, 0, 0)" stroke="rgb(153, 153, 153)" stroke-width="1.5px"></line></g></g><g><g><g><g><g><path stroke="rgb(255, 112, 67)" stroke-width="2px" d="M193.86632812500002,405.34973683860466L201.04656250000002,326.1731365533779L208.226796875,241.16342562866666L215.40703125,183.68650536620774L222.587265625,146.80176086450265L229.7675,126.44755685097216L236.947734375,112.8727114362168L244.12796875,93.93309484630643L251.30820312499998,82.57502577957574L258.4884375,75.18775919091227L265.668671875,69.83726012834751L272.84890625,67.43144798663371L280.029140625,66.10281435565399L287.209375,63.812607687817334L294.38960937499996,62.55327298217933L301.56984374999996,61.91263957720067L308.750078125,60.60941228792835L315.9303125,60.05719205216855L323.110546875,58.692057119548785L330.29078125,58.562112953430116L337.471015625,59.058525858884146L344.65125,58.89695017259366L351.831484375,58.22562570465526L359.01171875,58.97138893418944L366.191953125,59.533802719849014L373.3721875,59.64153941903509L380.552421875,59.246758356907016L387.73265625000005,58.665222286251584L394.91289062500005,58.431256553542134L402.09312500000004,58.061165581444925L409.273359375,57.035020496789095L416.45359375,57.91255854941822L423.633828125,57.864702411691894L430.8140625,57.72123309851142L437.994296875,58.43904173933404L445.17453125,56.45785596648942L452.354765625,55.15418860102957L459.535,55.86521327970944L466.715234375,56.52153961947791L473.89546875,55.19239879299818L481.075703125,55.08404889493643L488.2559375,55.24875048869699L495.43617187499996,54.6584368471681L502.61640624999995,52.58151230360277L509.79664062499995,53.17304983821734L516.976875,56.054799217509384L524.157109375,53.76379688890223L531.33734375,53.99717621988907L538.517578125,53.33331359020931L545.6978125,51.67148244733816L552.878046875,52.39732039186561L560.05828125,51.45455396302357L567.238515625,51.9224958665839L574.41875,51.28441487834825L581.598984375,51.13127781799967L588.7792187499999,52.073197614261375L595.959453125,54.01661868757582L603.1396874999999,52.426132940450046L610.319921875,52.160976089952946L617.50015625,50.39390125150616L624.680390625,50.13754657670922L631.860625,50.09868967393013L639.040859375,49.156529401891376L646.22109375,48.3615217060759L653.4013281250001,47.999272719079954L660.5815625,47.55221179428887L667.7617968750001,46.70979654373608L674.94203125,46.54881455649072L682.122265625,47.256315864020316L689.3025,46.99168205076125L696.482734375,47.522036360583L703.66296875,46.69169128351332L710.843203125,46.19348423727148L718.0234375,45.32018104224067L725.203671875,46.05971269028512L732.38390625,46.15876424442031L739.564140625,46.10343954640734L746.744375,45.84053319500716L753.924609375,45.797545014660415L761.10484375,45.77175210645233L768.285078125,46.100943796218964L775.4653125000001,46.06874727748653L782.645546875,45.59000630106173L789.8257812500001,45.87694041088628L797.006015625,46.16405677888008L804.1862500000001,45.302524567205836L811.3664843749999,45.934162903164605L818.54671875,45.62401130696192L825.7269531249999,45.897343414426025L832.9071875,46.40601011359667L840.0874218749999,46.251787067913355L847.26765625,45.81458580581097L854.447890625,45.207797885463215L861.628125,45.18819229634053L868.808359375,44.83196177978117L875.98859375,44.503267567746484L883.168828125,44.765474105710645L890.3490625,44.57833086540343L897.529296875,45.95906974726871L904.70953125,45.064776717745666L911.889765625,45.447047030402565L919.07,45.44669768540428L926.250234375,44.75735348062775L933.43046875,45.72201615331774L940.610703125,44.80758865927583L947.7909375,44.83331113013567L954.9711718750001,44.38932154746603L962.15140625,44.352639330456626L969.3316406250001,44.90480869592989L976.511875,44.77668725002811L983.6921093750001,45.04448181717889L990.8723437499999,44.8604911227777L998.052578125,45.094764140828985L1005.2328124999999,45.23532795165943L1012.413046875,45.89384493383694L1019.5932812499999,46.05924359055178L1026.7735156249998,45.35459255630773L1033.95375,45.85064806613239L1041.133984375,45.344190872149035L1048.31421875,45.27002808835238L1055.494453125,45.11077478758177L1062.6746875,45.12997843761221L1069.854921875,45.37121216022306L1077.03515625,44.712062165519L1084.215390625,44.661039331781765L1091.395625,44.40071409894647L1098.575859375,45.04860945912381L1105.75609375,44.86296770794373L1112.936328125,45.67042878760731L1120.1165625,45.92519390281271L1127.2967968750002,45.963297341443166L1134.47703125,45.87120350252219L1141.657265625,45.930903101268854L1148.8375,45.39234389323132L1156.0177343750001,45.06920836840915L1163.19796875,44.99028295561583L1170.378203125,44.71321617534673L1177.5584374999999,45.810289400642255L1184.738671875,45.549687205448315L1191.91890625,45.16361435573994L1199.099140625,45.16168217850692L1206.2793749999998,44.93081133957472L1213.459609375,44.677533205722014L1220.63984375,44.52556632541044L1227.820078125,45.353232327594185L1235.0003125,45.5051644942128L1242.180546875,46.05574685936876L1249.36078125,45.46725014809203L1256.541015625,45.11415212132634L1263.72125,45.47667227255133L1270.901484375,45.694184363286695L1278.08171875,45.93944724822146" style="fill: none;" fill="none"></path></g></g></g></g><g opacity="0.2"><g><g><g><path stroke="rgb(255, 112, 67)" stroke-width="2px" d="M172.325625,451.1749191284178L179.505859375,312.7737207412716L186.68609375,187.29304504394472L193.86632812500002,163.4607238769525L201.04656250000002,209.40303039550724L208.226796875,114.93391227722095L215.40703125,97.99243640899584L222.587265625,91.67536926269457L229.7675,95.98271083831713L236.947734375,92.53703784942553L244.12796875,65.5459327697746L251.30820312499998,65.5459327697746L258.4884375,64.10998535156169L265.668671875,61.81287002563395L272.84890625,63.82309627532881L280.029140625,64.10998535156169L287.209375,60.37742328643719L294.38960937499996,60.66431236267012L301.56984374999996,60.95170211791911L308.750078125,58.65458679199136L315.9303125,59.228865623473325L323.110546875,56.644360542296546L330.29078125,58.367197036742375L337.471015625,59.80314445495524L344.65125,58.65458679199136L351.831484375,57.2186393737785L359.01171875,60.09003353118816L366.191953125,60.37742328643719L373.3721875,59.80314445495524L380.552421875,58.65458679199136L387.73265625000005,57.79291820526042L394.91289062500005,58.08030796050945L402.09312500000004,57.506029129027496L409.273359375,55.49580287933267L416.45359375,59.228865623473325L423.633828125,57.79291820526042L430.8140625,57.506029129027496L437.994296875,59.51575469970625L445.17453125,53.48607730865396L452.354765625,53.19868755340493L459.535,56.93175029754558L466.715234375,57.506029129027496L473.89546875,53.19868755340493L481.075703125,54.92152404785076L488.2559375,55.49580287933267L495.43617187499996,53.772966384886885L502.61640624999995,49.46612548828043L509.79664062499995,54.06035614013592L516.976875,60.37742328643719L524.157109375,50.32729339599527L531.33734375,54.347245216368805L538.517578125,52.337519645690094L545.6978125,49.1787357330314L552.878046875,53.48607730865396L560.05828125,50.04040431976235L567.238515625,52.62440872192302L574.41875,50.32729339599527L581.598984375,50.90157222747723L588.7792187499999,53.48607730865396L595.959453125,56.93175029754558L603.1396874999999,50.04040431976235L610.319921875,51.763240814208174L617.50015625,47.743288993834646L624.680390625,49.75301456451336L631.860625,50.04040431976235L639.040859375,47.743288993834646L646.22109375,47.16901016235269L653.4013281250001,47.455899238585616L660.5815625,46.88162040710366L667.7617968750001,45.446173667906905L674.94203125,46.30734157562174L682.122265625,48.31756782531656L689.3025,46.59473133087077L696.482734375,48.31756782531656L703.66296875,45.446173667906905L710.843203125,45.446173667906905L718.0234375,44.010226249694L725.203671875,47.16901016235269L732.38390625,46.30734157562174L739.564140625,46.02045249938882L746.744375,45.446173667906905L753.924609375,45.73306274413979L761.10484375,45.73306274413979L768.285078125,46.59473133087077L775.4653125000001,46.02045249938882L782.645546875,44.87189483642495L789.8257812500001,46.30734157562174L797.006015625,46.59473133087077L804.1862500000001,44.010226249694L811.3664843749999,46.88162040710366L818.54671875,45.15878391265787L825.7269531249999,46.30734157562174L832.9071875,47.16901016235269L840.0874218749999,46.02045249938882L847.26765625,45.15878391265787L854.447890625,44.29761600494303L861.628125,45.15878391265787L868.808359375,44.29761600494303L875.98859375,44.010226249694L883.168828125,45.15878391265787L890.3490625,44.29761600494303L897.529296875,48.03017807006753L904.70953125,43.723337173461076L911.889765625,46.02045249938882L919.07,45.446173667906905L926.250234375,43.723337173461076L933.43046875,47.16901016235269L940.610703125,43.43594741821208L947.7909375,44.87189483642495L954.9711718750001,43.723337173461076L962.15140625,44.29761600494303L969.3316406250001,45.73306274413979L976.511875,44.58450508117591L983.6921093750001,45.446173667906905L990.8723437499999,44.58450508117591L998.052578125,45.446173667906905L1005.2328124999999,45.446173667906905L1012.413046875,46.88162040710366L1019.5932812499999,46.30734157562174L1026.7735156249998,44.29761600494303L1033.95375,46.59473133087077L1041.133984375,44.58450508117591L1048.31421875,45.15878391265787L1055.494453125,44.87189483642495L1062.6746875,45.15878391265787L1069.854921875,45.73306274413979L1077.03515625,43.723337173461076L1084.215390625,44.58450508117591L1091.395625,44.010226249694L1098.575859375,46.02045249938882L1105.75609375,44.58450508117591L1112.936328125,46.88162040710366L1120.1165625,46.30734157562174L1127.2967968750002,46.02045249938882L1134.47703125,45.73306274413979L1141.657265625,46.02045249938882L1148.8375,44.58450508117591L1156.0177343750001,44.58450508117591L1163.19796875,44.87189483642495L1170.378203125,44.29761600494303L1177.5584374999999,47.455899238585616L1184.738671875,45.15878391265787L1191.91890625,44.58450508117591L1199.099140625,45.15878391265787L1206.2793749999998,44.58450508117591L1213.459609375,44.29761600494303L1220.63984375,44.29761600494303L1227.820078125,46.59473133087077L1235.0003125,45.73306274413979L1242.180546875,46.88162040710366L1249.36078125,44.58450508117591L1256.541015625,44.58450508117591L1263.72125,46.02045249938882L1270.901484375,46.02045249938882L1278.08171875,46.30734157562174" style="fill: none;" fill="none"></path></g></g></g></g></g></g><g transform="translate(61, 378)" clip-path="url(#clip_1)"><clipPath id="clip_1"><rect width="1436" height="22"></rect></clipPath><g><g><line x1="0" y1="0" x2="0" y2="5" style="visibility: inherit;" fill="rgb(0, 0, 0)" stroke="rgb(204, 204, 204)" stroke-width="1px"></line><line x1="143.6046875" y1="0" x2="143.6046875" y2="5" style="visibility: inherit;" fill="rgb(0, 0, 0)" stroke="rgb(204, 204, 204)" stroke-width="1px"></line><line x1="287.209375" y1="0" x2="287.209375" y2="5" style="visibility: inherit;" fill="rgb(0, 0, 0)" stroke="rgb(204, 204, 204)" stroke-width="1px"></line><line x1="430.8140625" y1="0" x2="430.8140625" y2="5" style="visibility: inherit;" fill="rgb(0, 0, 0)" stroke="rgb(204, 204, 204)" stroke-width="1px"></line><line x1="574.41875" y1="0" x2="574.41875" y2="5" style="visibility: inherit;" fill="rgb(0, 0, 0)" stroke="rgb(204, 204, 204)" stroke-width="1px"></line><line x1="718.0234375" y1="0" x2="718.0234375" y2="5" style="visibility: inherit;" fill="rgb(0, 0, 0)" stroke="rgb(204, 204, 204)" stroke-width="1px"></line><line x1="861.628125" y1="0" x2="861.628125" y2="5" style="visibility: inherit;" fill="rgb(0, 0, 0)" stroke="rgb(204, 204, 204)" stroke-width="1px"></line><line x1="1005.2328124999999" y1="0" x2="1005.2328124999999" y2="5" style="visibility: inherit;" fill="rgb(0, 0, 0)" stroke="rgb(204, 204, 204)" stroke-width="1px"></line><line x1="1148.8375" y1="0" x2="1148.8375" y2="5" style="visibility: inherit;" fill="rgb(0, 0, 0)" stroke="rgb(204, 204, 204)" stroke-width="1px"></line><line x1="1292.4421875" y1="0" x2="1292.4421875" y2="5" style="visibility: inherit;" fill="rgb(0, 0, 0)" stroke="rgb(204, 204, 204)" stroke-width="1px"></line><line x1="1436.046875" y1="0" x2="1436.046875" y2="5" style="visibility: inherit;" fill="rgb(0, 0, 0)" stroke="rgb(204, 204, 204)" stroke-width="1px"></line></g><g transform="translate(0, 8)"><text x="0" y="0" dx="0em" dy="0.95em" style="text-anchor: middle; visibility: hidden; font-family: Roboto, sans-serif; font-size: 12px; font-weight: 200;" fill="rgb(50, 49, 63)" stroke="none" stroke-width="1px">-20</text><text x="143.6046875" y="0" dx="0em" dy="0.95em" style="text-anchor: middle; visibility: inherit; font-family: Roboto, sans-serif; font-size: 12px; font-weight: 200;" fill="rgb(50, 49, 63)" stroke="none" stroke-width="1px">0</text><text x="287.209375" y="0" dx="0em" dy="0.95em" style="text-anchor: middle; visibility: inherit; font-family: Roboto, sans-serif; font-size: 12px; font-weight: 200;" fill="rgb(50, 49, 63)" stroke="none" stroke-width="1px">20</text><text x="430.8140625" y="0" dx="0em" dy="0.95em" style="text-anchor: middle; visibility: inherit; font-family: Roboto, sans-serif; font-size: 12px; font-weight: 200;" fill="rgb(50, 49, 63)" stroke="none" stroke-width="1px">40</text><text x="574.41875" y="0" dx="0em" dy="0.95em" style="text-anchor: middle; visibility: inherit; font-family: Roboto, sans-serif; font-size: 12px; font-weight: 200;" fill="rgb(50, 49, 63)" stroke="none" stroke-width="1px">60</text><text x="718.0234375" y="0" dx="0em" dy="0.95em" style="text-anchor: middle; visibility: inherit; font-family: Roboto, sans-serif; font-size: 12px; font-weight: 200;" fill="rgb(50, 49, 63)" stroke="none" stroke-width="1px">80</text><text x="861.628125" y="0" dx="0em" dy="0.95em" style="text-anchor: middle; visibility: inherit; font-family: Roboto, sans-serif; font-size: 12px; font-weight: 200;" fill="rgb(50, 49, 63)" stroke="none" stroke-width="1px">100</text><text x="1005.2328124999999" y="0" dx="0em" dy="0.95em" style="text-anchor: middle; visibility: inherit; font-family: Roboto, sans-serif; font-size: 12px; font-weight: 200;" fill="rgb(50, 49, 63)" stroke="none" stroke-width="1px">120</text><text x="1148.8375" y="0" dx="0em" dy="0.95em" style="text-anchor: middle; visibility: inherit; font-family: Roboto, sans-serif; font-size: 12px; font-weight: 200;" fill="rgb(50, 49, 63)" stroke="none" stroke-width="1px">140</text><text x="1292.4421875" y="0" dx="0em" dy="0.95em" style="text-anchor: middle; visibility: inherit; font-family: Roboto, sans-serif; font-size: 12px; font-weight: 200;" fill="rgb(50, 49, 63)" stroke="none" stroke-width="1px">160</text><text x="1436.046875" y="0" dx="0em" dy="0.95em" style="text-anchor: middle; visibility: hidden; font-family: Roboto, sans-serif; font-size: 12px; font-weight: 200;" fill="rgb(50, 49, 63)" stroke="none" stroke-width="1px">180</text></g><line x1="0" y1="0" x2="1436.046875" y2="0" fill="rgb(0, 0, 0)" stroke="rgb(204, 204, 204)" stroke-width="1px"></line></g></g></g></g></svg>